<?xml version="1.0" standalone="no"?>
<!DOCTYPE svg PUBLIC "-//W3C//DTD SVG 1.1//EN" "http://www.w3.org/Graphics/SVG/1.1/DTD/svg11.dtd" >
<svg xmlns="http://www.w3.org/2000/svg" xmlns:xlink="http://www.w3.org/1999/xlink" version="1.1">
<metadata>
Created by FontForge 20161013 at Mon Jan 16 18:15:17 2017
 By ,,,
</metadata>
<defs>
<font id="icons" horiz-adv-x="512" >
  <font-face 
    font-family="icons"
    font-weight="400"
    font-stretch="normal"
    units-per-em="512"
    panose-1="2 0 5 3 0 0 0 0 0 0"
    ascent="448"
    descent="-64"
    bbox="-137 -64 568 591"
    underline-thickness="0"
    underline-position="5"
    unicode-range="U+F101-F150"
  />
<missing-glyph 
 />
    <glyph glyph-name=".notdef" 
 />
    <glyph glyph-name=".notdef" 
 />
    <glyph glyph-name=".null" horiz-adv-x="0" 
 />
    <glyph glyph-name="nonmarkingreturn" 
 />
    <glyph glyph-name="add" unicode="&#xf101;" 
d="M512 224h-224v224h-64v-224h-224v-64h224v-224h64v224h224v64z" />
    <glyph glyph-name="alert" unicode="&#xf102;" 
d="M477 26l-207 349q-5 8 -14 8t-14 -8l-207 -349q-2 -4 -3 -9t1 -9q5 -8 14 -8h418q9 0 14 8q2 4 1 9t-3 9zM288 48h-64v48h64v-48zM288 128h-64v144h64v-144z" />
    <glyph glyph-name="android-funnel" unicode="&#xf103;" 
d="M208 48h96v48h-96v-48zM32 336v-48h448v48h-448zM112 167h288v50h-288v-50z" />
    <glyph glyph-name="arrow-circle-o-up" unicode="&#xf104;" 
d="M356 198q-2 -6 -9 -6h-54v-101q0 -4 -3 -6.5t-7 -2.5h-54q-4 0 -7 2.5t-3 6.5v101h-54q-4 0 -7 2.5t-3 6.5t3 7l91 91q4 3 7 3t7 -3l91 -91q4 -5 2 -10zM256 347q-42 0 -78 -20.5t-56.5 -56.5t-20.5 -78t20.5 -78t56.5 -56.5t78 -20.5t78 20.5t56.5 56.5t20.5 78
t-20.5 78t-56.5 56.5t-78 20.5zM475 192q0 -60 -29 -110.5t-79.5 -79.5t-110.5 -29t-110.5 29t-79.5 79.5t-29 110.5t29 110.5t79.5 79.5t110.5 29t110.5 -29t79.5 -79.5t29 -110.5z" />
    <glyph glyph-name="arrow-down-b" unicode="&#xf105;" 
d="M99 263l2 -2l136 -156q7 -9 19 -8.5t19 8.5l138 159q3 3 3 9t-5 10.5t-12 4.5h-286q-7 0 -12 -4.5t-5 -10.5t3 -10z" />
    <glyph glyph-name="arrow-down-c" unicode="&#xf106;" 
d="M384 125l-105 -100q-9 -9 -22.5 -9t-22.5 9l-106 100q-9 10 -9 22t9.5 21t22.5 9t23 -8l50 -49v217q0 13 9 22t23 9t23 -9t9 -22v-217l50 49q10 8 23 8t22.5 -9t9.5 -21t-9 -22z" />
    <glyph glyph-name="arrow-return-left" unicode="&#xf107;" 
d="M192 352v-64h248q7 -1 8 -8v-240q-1 -7 -8 -8h-304q-7 1 -8 8v48q1 7 8 8h248v128h-192v-64l-128 96z" />
    <glyph glyph-name="arrow-right-a" unicode="&#xf108;" 
d="M449 192l-192 192v-112h-192v-160h192v-112z" />
    <glyph glyph-name="arrow-right-c" unicode="&#xf109;" 
d="M323 320l100 -105q9 -9 9 -22.5t-9 -22.5l-100 -106q-10 -9 -22 -9t-21 9.5t-9 22.5t9 23l48 50h-217q-13 0 -22 9t-9 23t9 23t22 9h217l-49 50q-9 10 -9 23t9.5 22.5t21.5 9.5t22 -9z" />
    <glyph glyph-name="arrow-up-b" unicode="&#xf10a;" 
d="M413 121l-2 2l-136 156q-7 9 -19 9t-19 -9l-138 -158q-3 -4 -3 -10t5 -10.5t12 -4.5h286q7 0 12 4.5t5 10.5t-3 10z" />
    <glyph glyph-name="arrow-up" unicode="&#xf10b;" 
d="M413 121l-2 2l-136 156q-7 9 -19 9t-19 -9l-138 -158q-3 -4 -3 -10t5 -10.5t12 -4.5h286q7 0 12 4.5t5 10.5t-3 10z" />
    <glyph glyph-name="asterisk" unicode="&#xf10c;" 
d="M480 224l-187 -7l109 167l-60 32l-86 -176l-86 176l-60 -32l109 -167l-187 7v-64l186 10l-104 -170l56 -32l86 176l86 -176l56 32l-104 170l186 -10v64z" />
    <glyph glyph-name="at" unicode="&#xf10d;" 
d="M454 41q-36 -38 -85.5 -55.5t-103.5 -17.5q-53 0 -96 16.5t-73.5 46t-47 71t-16.5 90t18.5 89.5t50 71t73.5 47t91 17q41 0 80 -12t69 -36t48 -60t18 -85q0 -36 -10 -64t-27 -46.5t-38.5 -28t-45.5 -9.5t-38.5 11.5t-14.5 29.5h-3q-9 -15 -28 -28t-46 -13q-42 0 -64.5 27
t-22.5 71q0 25 8.5 50t24.5 44t38 31t48 12q24 0 39.5 -10t20.5 -24h1l5 25h54l-24 -114l-3 -19q-2 -10 -2 -20t4 -16.5t15 -6.5q24 -1 39.5 24.5t15.5 68.5q0 36 -12 64t-34 47t-51.5 28.5t-65.5 9.5q-38 0 -70 -13.5t-54.5 -37t-35 -56t-12.5 -69.5q0 -40 13 -72t37 -54.5
t56.5 -34.5t72.5 -12q49 0 84.5 15.5t65.5 43.5zM263 260q-14 0 -25 -8.5t-18.5 -21.5t-11.5 -28.5t-4 -29.5q0 -8 1 -16t6 -15t12 -11.5t20 -4.5q16 0 27.5 8t19 20.5t10.5 27t3 26.5q0 10 -1.5 19t-6 16.5t-12.5 12.5t-20 5z" />
    <glyph glyph-name="bell" unicode="&#xf10e;" 
d="M48 48l64 160v96q2 61 42.5 101.5t101.5 42.5v0q61 -2 101.5 -42.5t42.5 -101.5v-96l64 -160h-416zM256 -64q41 1 72.5 22.5t46.5 57.5h-238q15 -36 46.5 -57.5t72.5 -22.5z" />
    <glyph glyph-name="bold" unicode="&#xf10f;" 
d="M213 13q22 -9 40 -9q108 0 108 96q0 33 -12 51q-8 13 -17.5 21.5t-19 13.5t-23 7t-24 3t-27.5 1q-21 0 -29 -3v-138q0 -10 1 -23.5t3 -19.5zM209 227q12 -2 32 -2q23 0 40.5 3.5t31.5 12.5t21 25.5t7 40.5q0 20 -8 35t-22.5 23.5t-31 12.5t-35.5 4q-14 0 -37 -4
q0 -14 1 -43t1 -43v-65zM55 -27v26q5 2 25 5t30 8q2 3 3.5 7.5t2.5 9.5l2 9v11l1 28q0 281 -7 293q-1 3 -6 4.5t-13 3.5l-14 2l-22 2l-2 23q28 1 97.5 3.5t106.5 2.5h39q20 0 39 -3.5t36.5 -12t31 -20.5t21.5 -30t8 -39q0 -15 -5 -27.5t-11.5 -20.5t-18.5 -16.5t-20.5 -13
t-23.5 -11.5q44 -10 73 -38t29 -71q0 -28 -10 -51t-26.5 -37.5t-39.5 -24.5t-47 -14t-50 -4l-75 2q-31 0 -88 -3z" />
    <glyph glyph-name="bucket-advancedtransport" unicode="&#xf110;" 
d="M231 91q6 34 13 68l-65 -28q-20 -8 -37 4q-39 26 -78 51q-2 1 -5 -1l-49 -20l-1 1l3 4l34 28l-29 18l49 21q5 2 9 1l89 -33q4 -2 9 0l190 80q18 9 37 3q20 -6 41 -1q24 4 47 6q5 0 11 -1t3.5 -6t-6.5 -8q-16 -11 -32 -21q-33 -19 -68 -33l-70 -30q-8 -3 -11 -11
q-14 -33 -29 -65q-2 -4 -6 -6zM347 250q-4 8 -12.5 5t-5 -11.5t12 -5t5.5 11.5zM309 224q8 4 4.5 12t-12 4.5t-4.5 -11.5t12 -5zM276 210q8 4 4.5 12.5t-11.5 5t-5 -12t12 -5.5zM248 209q-4 8 -12 4.5t-4.5 -12t11.5 -5t5 12.5zM270 261l-4 -2l-60 -25q-4 -2 -8 0l-39 26
l4 2l46 20q3 1 6 0z" />
    <glyph glyph-name="bucket-artificialintelligence" unicode="&#xf111;" 
d="M212 309h31v59h-76q-13 0 -21.5 8.5t-9.5 21.5q1 8 9 8t9 -8q0 -5 3.5 -8.5t9.5 -4.5h74q-4 18 -18 29t-33 12q-51 -2 -83 -24.5t-49 -48.5q-22 -33 -33 -75h22q8 -1 8 -9t-8 -9h-27q-6 -33 -7 -68q0 -42 15 -95.5t54 -94.5h111q9 1 14.5 6.5t5.5 14t-5.5 14.5t-14.5 6
h-32q-8 0 -8 8t8 9h32q16 0 26.5 -10.5t10.5 -26.5t-10.5 -26.5t-26.5 -10.5h-90q34 -25 87 -26q22 0 37 15t16 38v69h-48q-8 1 -8 9t8 8h48v71h-86q-12 1 -20.5 9t-8.5 20.5t8 21t21 8.5h37q8 0 8 -8t-8 -9h-37q-11 -1 -11 -12t11 -12h86v62h-98q-16 -1 -26.5 -11.5
t-11.5 -26.5h-17q1 23 16.5 39t39.5 16h97v25h-31q-8 1 -8 8.5t8 8.5zM28 172v7q1 8 9 8t9 -8v-7q0 -12 7.5 -19.5t19.5 -7.5q8 -1 8 -9t-8 -9q-19 1 -31.5 13.5t-13.5 31.5zM104 145h55q8 -1 8 -9t-8 -9h-55q-8 1 -8 9t8 9zM154 99q8 0 8 -8t-8 -9h-70q-10 -1 -10 -11
t10 -11h43q8 -1 8 -9t-8 -9h-43q-11 1 -19 8.5t-8 19.5t8 20t19 8h70v1zM184 292h-89q-12 0 -20 8t-8 20.5t8 20.5t20 8h51q8 -1 8 -9t-8 -8h-51q-5 -1 -8 -4t-3 -8t3 -8.5t8 -3.5h89q8 0 8 -7.5t-8 -8.5zM465 125h27q6 32 7 67q0 43 -15 96.5t-54 93.5h-111
q-9 0 -14.5 -5.5t-5.5 -14t5.5 -14.5t14.5 -6h32q8 0 8 -8t-8 -9h-32q-16 0 -26.5 10.5t-10.5 26.5t10.5 26.5t26.5 10.5h91q-35 25 -88 26q-22 0 -37 -15t-15 -38v-70h48q8 0 8 -8t-8 -9h-48v-71h85q13 0 21.5 -8.5t8.5 -21t-8.5 -21t-21.5 -8.5h-36q-8 1 -8 9t8 9h36
q11 1 11 12t-11 12h-86v-62h98q16 0 26.5 11t11.5 27h17q-1 -24 -16.5 -39.5t-38.5 -16.5h-98v-24h31q8 -1 8 -9t-8 -9h-31v-59h76q13 0 21.5 -8.5t9.5 -21.5q-1 -8 -9 -8t-9 8q0 5 -3.5 8.5t-9.5 4.5h-74q4 -18 18 -29t33 -12q51 2 83 24.5t49 48.5q22 33 33 75h-22
q-8 1 -8 9.5t8 9.5zM408 240h-55q-8 1 -8 9t8 9h55q8 -1 8 -9t-8 -9zM358 286q-8 0 -8 8t8 9h70q10 1 10 11t-10 11h-43q-8 1 -8 9t8 9h43q12 -1 19.5 -8.5t7.5 -19.5t-7.5 -20t-19.5 -8h-70v-1zM417 35h-51q-8 1 -8 9t8 9h51q5 0 8.5 3.5t3.5 8t-3.5 8t-8.5 3.5h-89
q-8 1 -8 9t8 9h89q12 -1 20 -9t8.5 -20.5t-8 -20.5t-20.5 -9zM440 240q-8 1 -8 9t8 9q18 -1 30.5 -13.5t13.5 -30.5v-8q-1 -8 -9 -8t-9 8v8q0 11 -7.5 18.5t-18.5 7.5z" />
    <glyph glyph-name="bucket-earthandenergy" unicode="&#xf112;" 
d="M274 436q11 -2 22 -5q57 -11 88 -61q17 -28 21 -61q3 -29 -3.5 -56.5t-20.5 -52.5l-26 -46q-13 -25 -14 -53q-1 -11 -5.5 -22.5t-16.5 -17.5q3 -10 -5 -17q6 -7 6 -12t-6 -11q6 -7 5.5 -12.5t-5.5 -10.5q7 -5 5 -14.5t-12 -9.5q-5 0 -8 -4q-15 -20 -40 -21q-15 -2 -28 4
t-20 18q-2 2 -4 3q-10 -1 -14 8t3 15q-3 7 -3 12.5t3 11.5q-3 5 -3 11t3 12q-2 3 -3 7.5t-1 9.5q-12 5 -16.5 14.5t-4.5 21.5q0 19 -6.5 36.5t-16.5 33.5q-15 23 -26.5 48t-14.5 53q-5 45 13 86q32 65 104 79l16 3h34zM239 186q-4 -3 -7 -4q-17 -11 -35 0q-10 6 -18 15
q-16 20 -25 42.5t-14 47.5q28 -3 53.5 -13t46.5 -28q2 37 26 64q31 36 75 57h2q8 -12 11 -27q7 -40 -5 -78q-9 -28 -29.5 -50t-51.5 -15q-3 1 -3 -3l-6 -22v-5q13 -41 7 -83l-1 -16h37q21 -1 26 19q2 4 2 8l4 28q4 21 15 39q15 26 29 53q28 51 15 108q-9 40 -38 69
q-20 18 -44.5 26t-50.5 9q-10 0 -21 -1q-32 -2 -59 -18q-60 -39 -65 -111q-2 -38 13 -74q12 -29 30 -54q9 -15 15.5 -31.5t6.5 -34.5q0 -12 4 -23t17 -11l44 -1l-2 25q-1 31 3 63q2 7 1 13q-3 8 -8 17zM310 34h-34q-8 -1 -11 -10h1h36q8 0 8 10zM310 11h-35q-8 -1 -9 -10h35
q9 0 9 10zM310 -11h-33q-9 -1 -11 -10h35q9 0 9 10zM310 56h-35q-8 -2 -10 -10h37q8 1 8 10zM315 326q-27 -25 -43 -58q-8 -18 -6 -37l1 -8q2 31 15.5 56t32.5 47zM231 203q0 1 1 1l-1 5q-5 18 -20 29q-20 17 -45 26l-2 1q21 -10 39 -24.5t28 -37.5zM255 80q5 29 0 58
q-3 -29 0 -58zM254 203q-6 -8 -6.5 -10.5t3.5 -5.5l4 12q0 2 -1 4z" />
    <glyph glyph-name="bucket-enhancedhumans" unicode="&#xf113;" 
d="M498 210q8 -50 -28 -89q-49 -56 -111 -95q-81 -52 -175 -69q-49 -9 -97 -10q-27 1 -46 16t-27 40q-2 10 -2 19v246q0 44 30 74q44 45 88 87q11 15 26 0l54 -53q8 -8 4 -20q1 1 -1 -1l-3 6l-47 46q-5 5 -12.5 2t-6.5 -11q0 -2 2.5 -4.5t9.5 -4.5l46 -47q1 -2 4 -4l-9 -9
q0 1 -2 4l-49 48q-6 6 -12.5 3.5t-8 -9.5t4.5 -11l46 -46l6 -4q-13 -7 -21 2l-41 41l-5 3q-3 2 -6 1q-7 -1 -9 -7.5t3 -11.5l32 -32q-7 -4 -15.5 -3t-16.5 7q0 2 -1 2q-11 8 -18 -0.5t2 -17.5t23 -12q3 0 4 -4l39 -145q0 -2 -2 -5q-31 -35 -32 -80q0 -12 11.5 -12t11.5 12
q2 38 25.5 65t61.5 33q31 4 60 -9q6 -3 11 -0.5t6 9.5q-1 5 -2 8q-15 46 6.5 84t67.5 50q42 8 77 -15.5t44 -66.5z" />
    <glyph glyph-name="bucket-fromtheexperts" unicode="&#xf114;" 
d="M11 192q2 104 71.5 173.5t173.5 71.5q104 -2 173.5 -71.5t71.5 -173.5q-2 -105 -71.5 -174t-173.5 -71q-105 2 -174 71.5t-71 173.5zM431 274q-29 28 -58 57l-164 -163l-71 71l-57 -57l129 -129z" />
    <glyph glyph-name="bucket-futuresociety" unicode="&#xf115;" 
d="M94 181q-25 -30 -41 -54.5t-21 -35.5q24 -54 69 -90q-6 24 -8 70t9 106q-4 1 -8 4zM280 315q8 -3 13 -9.5t7 -14.5v1q38 -2 78 -13q9 12 24 14h3q3 1 7 0q11 -3 17.5 -11.5t6.5 -18.5q0 -4 -1 -7q32 -16 66 -39q-6 58 -36 105.5t-76 77.5q7 -18 14 -45t9 -62q-3 2 -7 1
h-3q-3 37 -11 64.5t-15 42.5l-3 8q-11 7 -21 11q-28 12 -60 17l-2 -1q-49 -33 -81 -71q-4 5 -9 7q31 35 74 66h1q-4 1 -9 1h-10q-45 0 -85.5 -15t-72.5 -43q10 -2 26 -7t36 -14q-2 -5 -3 -10q-50 19 -69 22q-36 -34 -57 -80t-21 -100q0 -46 17 -87q7 14 22.5 36.5t37.5 48.5
q-4 7 -4 15q0 13 9 21.5t22 8.5h4q16 45 46 89q-8 8 -8 20l1 5q1 5 3 10q9 15 27 16q7 0 13 -3t9 -7q8 -9 8 -21q0 -6 -2 -11q18 -10 37 -23q7 6 18 6q5 0 10 -1zM432 246q-1 0 -1 -1q-8 -10 -21 -12h-1q-3 -20 -10 -39q1 0 1 -1q11 -8 10.5 -23t-7.5 -25l-1 -1
q26 -49 42 -112q28 32 43 73t15 87v11q-36 26 -70 43zM352 170q0 13 9 22q3 3 8.5 5.5t12.5 2.5q4 0 8 -1q6 18 8 35q-10 2 -16.5 10t-6.5 20v4q-38 11 -75 12q-1 -3 0 -6l-1 -2q37 -31 69 -74q-6 -3 -9 -6q-32 42 -67 72q-8 -8 -20 -8q-17 0 -26 13q-2 3 -3 6q-3 5 -3 11v0
q0 9 5 16q2 4 7 8q-5 -4 -8 -8q-19 12 -35 22q1 0 0 -1q-9 -9 -22 -9q-8 -1 -14 3q-29 -43 -44 -85l1 -1l1 -1q22 17 47.5 31t54.5 22q4 1 5 1q1 -6 3 -11q-3 0 -5 -1q-57 -15 -98 -50q6 -8 6 -17q0 -13 -8.5 -22t-20.5 -9h-2q-13 -68 -8.5 -117.5t9.5 -66.5q10 -8 23 -15
q29 12 54 24q121 58 174 144q5 -3 11 -4q-6 1 -10 4q-13 10 -14 27zM382 138q-3 0 -6 1q-55 -90 -182 -151q-22 -11 -44 -20q25 -11 54 -18q25 -5 52 -5q53 0 99 20.5t80 56.5q-16 66 -43 118q-5 -2 -10 -2z" />
    <glyph glyph-name="bucket-hardscience" unicode="&#xf116;" 
d="M273 -2q10 0 17.5 7.5t7.5 17.5t-7.5 17.5t-18 7.5t-17.5 -6.5t-7 -17.5t7 -18.5t18 -7.5zM291 28v-9h-36v9h36zM351 277q0 10 -7 17.5t-17.5 7.5t-18 -7t-7.5 -17.5t7.5 -18t18 -7.5t17.5 7.5t7 17.5zM331 259h-8v37h8v-37zM341 317h4l23 23l-50 50q-53 -51 -104 -103
l50 -50q13 10 25 23q-5 13 -3 25q5 20 20.5 29t34.5 3zM393 -30q-5 6 -9.5 13t-8.5 13l-3 4q-4 6 -7.5 8.5t-9.5 2.5q44 25 66.5 69t16.5 96q-8 68 -61 110l-2 2q-2 7 -5 14l-1 1l22 22q14 14 0 28l-2 2l28 28q13 13 0 27l-26 26q-14 13 -27 0l-28 -27l-2 2q-6 7 -14.5 7
t-14.5 -7l-102 -102l-1 1q-5 4 -11.5 4t-11.5 -5t-5 -11.5t5 -11.5l13 -13l-41 -41q-6 -4 -8 -13q0 -9 7 -15l34 -33q13 -12 26 0l41 41l13 -13q5 -4 11.5 -4t11.5 4.5t5 11.5t-5 12v0l12 11q18 -12 40 -5h1q29 -28 31 -69q1 -34 -17 -60.5t-49 -38.5q-12 10 -26.5 12
t-27.5 -5v52q-1 7 -8 8h-34v24q0 7 -8 8h-83q-8 -1 -9 -8v-24h-28q-8 0 -8 -8v-50q0 -8 8 -8h55q23 -33 53 -49q-8 -2 -13 -8l-12 -18q-5 -9 -12 -19q-2 -3 -3 -7.5t1 -9.5q5 -9 16 -10h214q10 1 15 10q3 5 1.5 9.5l-2.5 7.5zM298 245l-23 -23l6 -5q5 -6 -0.5 -11.5
t-11.5 -0.5l-18 18l-47 49v0l-20 20q-5 6 0.5 11.5t11.5 0.5l7 -7l108 109q5 5 8.5 5t8.5 -5l49 -52h-1l9 -7q5 -5 5 -8.5t-5 -8.5l-25 -25q5 -12 8 -21v-1q3 -6 -0.5 -20t-26.5 -25l-3 -1q-23 -7 -40 8zM296 57v0l4 -2q3 -2 7 -7t7 -14l1 -6q2 -9 -1 -22h-1q-6 -15 -21 -21
q-2 0 -6 -2l-10 -2h-3q-6 0 -11 1l-4 1q-17 5 -24 22v0q-5 13 -3 24l1 3q3 10 7 16t7 8q12 8 25.5 8.5t24.5 -7.5zM118 152h83v-17h-83v17z" />
    <glyph glyph-name="bucket-healthmedicine" unicode="&#xf117;" 
d="M105 299q-8 0 -13 5t-5 13t5 13t13 5t13 -5t5 -13t-5 -13t-13 -5zM209 304q8 0 13 -5t5 -13t-5 -13.5t-13 -5.5t-13.5 5.5t-5.5 13.5t5.5 13t13.5 5zM457 225q0 -8 -5.5 -13.5t-14 -5.5t-14 5.5t-5.5 13.5t5.5 14t14 6t14 -6t5.5 -14zM507 261q0 -36 -15.5 -69t-39.5 -63
v65q18 9 20 31q-1 15 -10.5 24.5t-24 9.5t-24 -9.5t-10.5 -24.5q1 -22 20 -31v-96q-30 -29 -61 -52v206l34 45q3 -1 7 -1q14 1 24 10t10 24t-10 24.5t-24 9.5t-24 -9.5t-10 -24.5q0 -8 4 -15l-39 -56v-234q-34 -23 -56 -35v223l-39 55q5 8 5 18q0 14 -9.5 23.5t-24.5 9.5
t-24.5 -9.5t-9.5 -24t9.5 -24t24.5 -10.5l4 1l35 -48v-223q-16 8 -53 31v126l-41 55q5 8 5 18q0 14 -9.5 24t-24 9.5t-24.5 -10t-10 -23.5t9.5 -24t24.5 -10h5l36 -48v-98q-26 18 -53 40.5t-50 49.5v116l34 47l7 -1q14 0 24 9.5t10 24t-10 24.5t-24 10t-24 -9.5t-10 -24.5
q0 -9 4 -16l-40 -56v-84q-29 46 -30 100q1 60 41 100t101 42q33 -1 61 -14.5t48 -37.5q20 24 47.5 37.5t61.5 14.5q60 -2 100 -42t42 -100z" />
    <glyph glyph-name="bucket-offworld" unicode="&#xf118;" 
d="M258 438q5 -2 11 -5q30 -14 45.5 -44.5t19.5 -65.5q4 -30 3 -60v-56q0 -4 2 -7l39 -53q4 -5 4 -11l-1 -11h-54q4 -12 8 -22t-2 -18.5t-15 -9.5h-119q-19 0 -23 18q-1 4 0 7l9 25h-54q-1 7 -0.5 13t4.5 11q20 25 38 51q2 3 2 7q-1 47 0 93q1 49 24 92q18 34 55 45v1h4z
M256 259q10 0 19.5 0.5t15.5 6.5t7 16v38q-1 10 -7 16t-15 7h-40q-9 -1 -15.5 -7t-6.5 -16v-38q0 -10 6.5 -16t16.5 -7h19zM264 125v14v55q0 8 -8 8.5t-8 -8.5v-66v-3h16zM256 -54q-10 18 -19 35q-16 28 -26 58q-4 11 -2 21q1 4 5 4h15q4 0 5 -4l21 -42l2 3l21 40q1 3 4 3
h16q4 0 5 -4q2 -12 -3 -23q-12 -34 -30 -65z" />
    <glyph glyph-name="bucket-robotsmachines" unicode="&#xf119;" 
d="M217 160l4 -4l139 -136q3 -3 7 -3h69q6 1 6 -5v-61q0 -5 -6 -5h-250q-6 0 -5 5v60q0 6 5 5h28l5 1q-1 3 -2 4l-74 74q-2 1 -1.5 2.5t2.5 1.5q51 9 70 58l1 2zM376 385q0 -1 -1 -4l-21 -60q-2 -7 -9 -10l-19 -8q-6 -2 -2 -5t4 -4.5t-3 -4.5l-17 -16q-4 -5 -8 0l-5 6
q-4 4 -8 0l-64 -65q-6 -6 -8 2q-16 46 -63 59q-3 1 -3 2.5t1 3.5l67 66q3 3 3 4.5t-3 4.5l-8 7q-3 3 0 6l19 19q4 3 6 0q5 -6 7 1l8 18q2 7 9 9q30 10 60 21q6 2 11.5 -0.5t6.5 -7.5q4 -12 -9 -17l-51 -18q-4 -1 -6 -5l-10 -22q-2 -3 1 -6l37 -37q3 -4 7 -2l22 10q3 2 4 5
l19 52q5 13 17 10q9 -3 9 -14zM70 189q1 25 18 42t42.5 16.5t42 -17t16.5 -42t-17 -42.5t-42.5 -16.5t-42 17t-17.5 42.5zM130 211q-10 0 -17 -6.5t-7 -17t7 -17t17 -6.5t17 7t7 17t-7 16.5t-17 6.5z" />
    <glyph glyph-name="bucket-scifivisions" unicode="&#xf11a;" 
d="M273 378q0 -1 1 -2q8 -6 7 -15.5t-1 -19.5q0 -5 -3.5 -8.5t-7.5 -3.5h-5v-24l19 -3q37 -7 64 -31t35 -62q1 -3 4 -3q38 -6 72 -21q15 -7 27.5 -16.5t12.5 -25.5q-1 -10 -7 -18q-10 -11 -23 -17l-25 -12q-3 -1 -4 -2q-22 -39 -60 -59t-80 -25q-71 -11 -137 13
q-40 13 -69 44q-11 12 -19 25q-2 3 -5 4q-20 7 -38 19l-10 10q-7 9 -7 19.5t8 19.5q16 16 37 23q33 13 67 19q3 0 4 3q18 74 92 92q12 3 26 4v24h-1q-5 -1 -8 1.5t-5 5t-2 4.5v25q-1 5 3 8l4 5h34zM127 189h-2q-35 -6 -66 -20q-13 -6 -24 -15.5t1 -20.5q8 -7 18 -13
q27 -12 56 -18q66 -14 133 -15q62 -1 123 8q38 5 75 18q17 6 31 16q19 15 0 29q-8 6 -18 11q-25 11 -52 17l-17 3v-2q0 -6 -1.5 -8t-7.5 -4q-23 -8 -47 -14.5t-49 -8.5q-42 -3 -83 5q-31 7 -61 18q-6 2 -7.5 4t-1.5 8v2zM183 210q1 -9 8.5 -9.5t8.5 9.5q0 16 11 27t27 12
q10 0 9.5 7.5t-9.5 8.5q-22 -1 -37.5 -16.5t-17.5 -38.5zM264 361h-16v-15h16v15zM256 128q8 -1 7.5 -8.5t-8 -7.5t-7 7.5t7.5 8.5zM337 127q-1 -7 -8.5 -7t-7.5 7.5t7.5 7.5t8.5 -8zM183 119q-7 1 -7 8.5t7.5 7.5t7.5 -7.5t-8 -8.5zM401 144q-1 -8 -8.5 -8t-7 7.5t8 7.5
t7.5 -7zM127 144q-1 -8 -8.5 -8t-7 7.5t7.5 7.5t8 -7z" />
    <glyph glyph-name="bucket-virtuality" unicode="&#xf11b;" 
d="M256 349q64 0 127 -1q33 1 59 -21q14 -13 20 -31q1 -3 4 -5q27 -13 36 -42q2 -7 2 -15v-116q0 -21 -7 -41q-12 -34 -48 -40q-14 -2 -29 -2h-87q-4 0 -8 3q-11 11 -26 9h-96q-5 1 -8 -3q-11 -10 -26 -9q-29 1 -57 1q-33 -1 -63 11.5t-39 43.5q-2 9 -2 18v119q0 44 38 63
q2 1 3 3q14 40 55 51q17 4 36 4h116zM79 302q19 3 38 3h274q16 0 32 -2l10 -1q-7 10 -18 15q-18 9 -38 8q-121 1 -242 0q-14 0 -28 -4q-17 -4 -28 -19zM437 170q0 26 -17 43t-43 17t-43 -17t-17 -42.5t17 -43t42.5 -17.5t43 17t17.5 43zM130 231q-25 -1 -42.5 -18
t-17.5 -42.5t17 -43t43 -17.5t43 17t17 43t-17 43t-43 18zM283 71q-14 11 -26 20q-1 0 -3 -1l-23 -17l-1 -2h53zM409 204q-11 -2 -12 -11.5t7 -14.5t18 4q5 -12 -0.5 -28t-23 -25t-35 -4t-27 21t-6 34t19 29t32.5 8.5t27 -13.5zM163 204q-12 -2 -13 -11.5t7.5 -14.5t17.5 4
q5 -11 0 -26.5t-21.5 -25.5t-34 -6t-28.5 20t-8 34t18.5 29.5t33 10t28.5 -13.5z" />
    <glyph glyph-name="camera" unicode="&#xf11c;" 
d="M430 301h-67l-41 41q-9 10 -23 10h-84q-15 0 -25 -11l-39 -40h-69q-15 0 -24.5 -9.5t-9.5 -23.5v-202q0 -15 9.5 -24.5t24.5 -9.5h348q15 0 24.5 9.5t9.5 24.5v202q0 14 -9.5 23.5t-24.5 9.5zM256 83q-39 1 -65 27t-26 65t26 65.5t65 26.5t65 -26.5t26 -65.5t-26 -65
t-65 -27zM424 248q-6 0 -10 4t-4 10t4 10t10 4t10 -4t4 -10t-4 -10t-10 -4zM256 245q-30 -1 -49.5 -20.5t-19.5 -49.5t19.5 -49.5t49.5 -19.5t49.5 19.5t19.5 49.5t-19.5 49.5t-49.5 20.5z" />
    <glyph glyph-name="check" unicode="&#xf11d;" 
d="M462 338l-55 44q-3 2 -6.5 2t-6.5 -2l-199 -257l-81 78q-3 4 -10 6q-6 -1 -8 -6l-46 -48q-2 -2 -2 -5.5t2 -5.5l145 -139q3 -4 9 -5q3 0 5 2l4 4l249 320q2 3 2 6.5t-2 5.5z" />
    <glyph glyph-name="chevron-down" unicode="&#xf11e;" 
d="M256 150v0l174 167q8 6 16 0l31 -30q6 -8 0 -16l-213 -204q-3 -3 -8 -3t-8 3l-213 204q-6 8 0 16l31 30q8 6 16 0z" />
    <glyph glyph-name="chevron-left" unicode="&#xf11f;" 
d="M214 192v0l167 174q6 8 0 16l-30 31q-8 6 -16 0l-204 -213q-3 -3 -3 -8t3 -8l204 -213q8 -6 16 0l30 31q6 8 0 16z" />
    <glyph glyph-name="chevron-right" unicode="&#xf120;" 
d="M298 192v0l-167 174q-6 8 0 16l30 31q8 6 16 0l204 -213q3 -4 3 -8.5t-3 -7.5l-204 -213q-8 -6 -16 0l-30 31q-6 8 0 16z" />
    <glyph glyph-name="chevron-up" unicode="&#xf121;" 
d="M256 234v0l174 -167q8 -6 16 0l31 30q6 8 0 16l-213 204q-3 3 -8 3t-8 -3l-213 -204q-6 -8 0 -16l31 -30q8 -6 16 0z" />
    <glyph glyph-name="close" unicode="&#xf122;" 
d="M438 61l-131 131l131 131q10 11 10 25t-11 25t-25 11t-25 -10l-131 -131l-131 131q-11 10 -25 10t-25 -11t-11 -25t11 -25l130 -131l-130 -131q-11 -11 -11 -25t11 -25t25 -11t25 11l131 130l131 -130q11 -11 25 -11t25 11t11 25t-10 25z" />
    <glyph glyph-name="comment" unicode="&#xf123;" 
d="M256 -1q44 0 81 16h2q5 2 11.5 2t12.5 -2l84 -31l-23 88q1 8 4 15v0l3 4q32 47 33 108q-2 86 -61 142.5t-147 58.5q-88 -2 -147 -58.5t-61 -142.5q2 -85 61 -141.5t147 -58.5zM352 224q14 0 23 -9t9 -23t-9 -23t-23 -9t-23 9t-9 23t9 23t23 9zM256 224q14 0 23 -9t9 -23
t-9 -23t-23 -9t-23 9t-9 23t9 23t23 9zM160 224q14 0 23 -9t9 -23t-9 -23t-23 -9t-23 9t-9 23t9 23t23 9z" />
    <glyph glyph-name="compose" unicode="&#xf124;" 
d="M443 348l-31 31q-5 5 -12 5t-13 -5l-31 -32l55 -55l32 31q5 6 5 13t-5 12zM346 338l-172 -178l-14 -64l64 14l177 173zM384 192v-150q-1 -9 -9 -10h-269q-4 0 -7 3t-3 7v268q0 4 3 7t8 3h149l32 32h-201q-10 0 -16.5 -6.5t-6.5 -16.5v-306q0 -10 6.5 -16.5t16.5 -6.5h306
q10 0 16.5 6.5t6.5 16.5v201z" />
    <glyph glyph-name="discussion" unicode="&#xf125;" 
d="M73 57v0q3 -4 3 -10l-12 -63l56 22q4 2 8.5 2t8.5 -2h1q27 -11 58 -11q35 0 64.5 14t50.5 38q-21 -5 -44 -6q-74 2 -123 49.5t-51 118.5q0 18 4 34q-23 -20 -36 -47t-13 -59q1 -43 24 -77zM290 400q-64 -1 -110 -38t-60 -95q-3 -17 -3 -34q1 -72 50 -119t123 -49
q23 0 44 6q13 3 24 7l2 1q4 2 9.5 2t9.5 -2l69 -26l-17 74q0 6 3 12v0l2 3q27 40 28 91q-2 71 -51 118t-123 49z" />
    <glyph glyph-name="edit" unicode="&#xf126;" 
d="M140 9l26 26l-67 67l-26 -26v-30h37v-37h30zM290 274q0 7 -7 7q-2 0 -4 -2l-155 -155q-2 -2 -2 -5q0 -6 6 -6q3 0 5 2l155 154q2 2 2 5zM274 329l119 -119l-238 -237h-118v118zM232 64q0 -15 -11 -26l-47 -47l-119 119l47 47q11 11 26 11t26 -11l67 -67q11 -11 11 -26z
" />
    <glyph glyph-name="email" unicode="&#xf127;" 
d="M67 299q17 -9 87 -47l83 -45q7 -4 20 -4t21 4l169 92q3 2 7 4.5t6 6.5q4 10 -12 10h-382q-16 0 -11 -10q1 -4 5 -6.5t7 -4.5zM456 295q-9 -6 -50 -34.5t-81 -53.5l82 -93q4 -3 2 -5t-6 1l-98 83l-27 -17q-11 -5 -21 -5t-20 5l-28 17l-98 -83q-4 -3 -6 -1t2 5l82 93
q-40 25 -81.5 53.5t-50.5 34.5q-6 3 -7.5 0.5t-1.5 -5.5v-205q1 -8 8.5 -14.5t15.5 -6.5h371q7 0 14 7t7 14v205q0 3 -1 5.5t-7 -0.5z" />
    <glyph glyph-name="eraser" unicode="&#xf128;" 
d="M238 46l96 109h-220l-96 -109h220zM527 353q4 -9 2.5 -20t-8.5 -19l-256 -292q-11 -13 -27 -13h-220q-11 0 -20 6t-13 15.5t-2.5 20.5t8.5 19l256 292q11 13 27 13h220q11 0 20 -6t13 -16z" />
    <glyph glyph-name="facebook" unicode="&#xf129;" 
d="M288 256v38q-1 13 5 19.5t26 6.5h33v64h-56q-51 0 -71.5 -22.5t-19.5 -62.5v-43h-45v-64h45v-192h83v192h56l8 64h-64z" />
    <glyph glyph-name="flag" unicode="&#xf12a;" 
d="M426 266q-28 -7 -65 3t-68 63q-32 57 -74.5 69t-73.5 5q-14 -3 -23.5 -13t-9.5 -22v-197q9 -3 16 -1l13 3q17 5 43 2t74 -26q62 -25 110.5 8.5t70.5 75.5q2 3 5.5 13.5t3.5 22.5q-8 -3 -14 -5zM88 416h-16q-7 -1 -8 -8v-432q1 -7 8 -8h16q7 1 8 8v432q-1 7 -8 8z" />
    <glyph glyph-name="flash" unicode="&#xf12b;" 
d="M96 160h147l-51 -192l224 256h-147l51 192z" />
    <glyph glyph-name="globe" unicode="&#xf12c;" 
d="M256 416q-95 -2 -158.5 -65.5t-65.5 -158.5q2 -95 65.5 -158.5t158.5 -65.5q95 2 158.5 65.5t65.5 158.5q-2 95 -65.5 158.5t-158.5 65.5zM64 192q0 35 12 66.5t34 58.5q2 -15 2 -26q-2 -19 -1 -33.5t12 -30.5q4 -6 6 -14l4 -16q2 -7 9 -11l13 -9q22 -19 46 -36
q8 -5 12.5 -9.5t2.5 -14.5l-4 -14q-1 -6 -5 -12q-1 -4 2.5 -13t6.5 -12q12 -12 25 -22q9 -9 3 -20l-11 -23q-65 9 -113 55q-27 28 -41.5 62.5t-14.5 73.5zM392 56q-43 -42 -100 -53q9 21 24 32q6 5 12 12t9 14q6 13 15 25q4 10 -8 20t-20 13q-14 6 -26 15l-25 17
q-9 5 -24 1.5t-26 -0.5q-14 7 -26 16l-25 19q-12 10 -14.5 21t-1.5 25l22 1q12 0 19 -8q2 -3 7.5 -9.5t10 -2.5t0.5 12l-5 13q-3 9 5 14.5t16 11.5l23 20q13 11 12 17q-2 7 -14.5 18t-24.5 9q-2 -1 -11 -10l-12 -12v18q0 3 -3.5 6t-3.5 5q2 5 10.5 12t12.5 11l-8 6
q-6 4 -9 3l-24 -8q0 4 -1 7q24 11 49 15l15 -6l11 -13l11 -11l9 -3l15 14l-4 10v9q62 -9 108 -54q27 -28 41.5 -62.5t14.5 -73.5t-14.5 -73.5t-41.5 -62.5zM423 262q-7 12 -14.5 25t-16.5 22l-41 39q-4 2 -8 3q11 -23 22 -45q7 -12 16.5 -24.5t12 -26.5t2.5 -28.5t1.5 -31.5
t8.5 -29t16 -19q5 16 5 32v33l1 26q0 16 -5 24z" />
    <glyph glyph-name="gplus" unicode="&#xf12d;" 
d="M242 172l-18 14v0q-10 6 -9.5 15.5t10.5 16.5v1q16 11 30 28t15 46q0 20 -7 34t-16 24h13l60 33h-133q-20 1 -45.5 -4.5t-49.5 -24.5v0q-17 -14 -26 -32.5t-9 -37.5q0 -17 6 -31.5t18 -26.5q16 -16 34 -21t33 -5h5q-2 -4 -2 -10q1 -16 8 -26q-18 -2 -41 -6.5t-43 -16.5
q-29 -18 -36.5 -37.5t-6.5 -27.5q0 -30 28 -53t88 -24q68 1 103.5 30.5t35.5 68.5q-1 27 -14.5 44t-30.5 29zM117 308q0 20 9 31q5 6 13 9.5t16 3.5q15 0 25 -9t15 -18q7 -12 11 -26.5t4 -27.5q1 -4 -1 -13t-9 -17q-5 -5 -13 -8t-15 -3q-16 0 -26 8.5t-15 18.5q-8 13 -11 27
t-3 24zM238 80q-1 -21 -18 -32.5t-48 -11.5q-37 0 -58.5 13.5t-21.5 37.5q1 19 12.5 28.5t25.5 14t29 6t21 1.5l8 -1q27 -18 38.5 -30t11.5 -26zM402 306v78h-34v-78h-80v-34h80v-81h34v81h78v34h-78z" />
    <glyph glyph-name="hashtag" unicode="&#xf12e;" 
d="M125 96h-93v54h101l13 84h-99v54h107l22 128h64l-22 -128h106l22 128h63l-22 -128h93v-54h-102l-12 -84h99v-54h-106l-23 -128h-63l22 128h-107l-21 -128h-64zM209 234l-12 -84h106l12 84h-106z" />
    <glyph glyph-name="help" unicode="&#xf12f;" 
d="M256 416q-95 -2 -158.5 -65.5t-65.5 -158.5q2 -95 65.5 -158.5t158.5 -65.5q95 2 158.5 65.5t65.5 158.5q-2 95 -65.5 158.5t-158.5 65.5zM276 89q0 -13 -8.5 -20.5t-21.5 -7t-21 8.5t-8 21.5t8.5 21t21.5 7t21 -8.5t8 -22zM325 217q-7 -9 -25 -23l-14 -9q-9 -7 -12 -17
q-1 -3 -1 -9l-1 -10q0 -3 -5 -4h-39q-5 1 -4 4q0 24 10 41q8 12 21 21t14 9q6 5 10 10q7 9 7.5 21t-7.5 22.5t-26 10t-25 -14.5q-4 -6 -4.5 -13t0.5 -14h-49q0 50 28 69q19 12 48 12q36 1 61 -17.5t25 -52.5q-1 -22 -12 -36z" />
    <glyph glyph-name="image" unicode="&#xf130;" 
d="M368 224q20 1 33.5 14.5t13.5 33.5t-13.5 33.5t-33.5 13.5t-33.5 -13.5t-13.5 -33.5t13.5 -33.5t33.5 -14.5zM452 384h-392q-12 0 -20 -8t-8 -20v-328q0 -12 8 -20t20 -8h392q12 0 20 8t8 20v328q0 12 -8 20t-20 8zM349 186q-5 6 -12.5 6t-13.5 -5l-18 -16
q-6 -4 -12.5 -4.5t-10.5 3.5l-4 5l-54 58q-6 7 -16.5 7t-16.5 -8l-127 -152v260q2 11 13 12h358q11 -1 13 -12v-260z" />
    <glyph glyph-name="instagram" unicode="&#xf131;" 
d="M176 192q1 -34 23.5 -56.5t56.5 -22.5t56.5 22.5t22.5 56.5t-22.5 56.5t-56.5 22.5t-56.5 -22.5t-23.5 -56.5zM178 271q33 32 79 32t79 -32q20 -20 28 -47h85v113q-1 20 -14 33t-33 14h-288q-21 -1 -35 -14t-14 -33v-113h85q8 27 28 47zM417 300q-1 -5 -4.5 -8.5
t-8.5 -3.5h-39q-5 0 -8.5 3.5t-3.5 8.5v39q0 5 3.5 8.5t8.5 4.5h39q5 -1 8.5 -4.5t4.5 -8.5v-39zM336 113q-33 -32 -79 -32.5t-79 32.5q-16 16 -24.5 36.5t-8.5 42.5h-80v-143q0 -21 14 -35t35 -14h288q20 0 33 14t14 35v143h-80q0 -22 -8.5 -42.5t-24.5 -36.5z" />
    <glyph glyph-name="italic" unicode="&#xf132;" 
d="M110 -27l5 24l23 7q21 5 32 10q8 10 11 29l18 83q18 80 33 155t15 85v7q-7 4 -16 5.5t-20 2t-16 1.5l5 29l77 -3q18 -1 34 -1q14 0 29 1l62 3q-1 -11 -5 -25q-9 -3 -29.5 -8t-30.5 -10q-2 -5 -4 -12l-3 -11l-4 -25q-7 -43 -24.5 -120.5t-22.5 -101.5l-9 -42
q-3 -12 -5 -24t-2 -16l1 -5q5 -2 53 -9q-1 -13 -5 -29h-19q-8 0 -24.5 2.5t-24.5 2.5l-59 1q-14 0 -41 -3z" />
    <glyph glyph-name="link" unicode="&#xf133;" 
d="M257 240h-1h1zM369 288h-49q1 0 13.5 -12.5t18.5 -35.5h17q13 0 22 -9t9 -22v-32q0 -14 -9 -23.5t-22 -9.5h-112q-14 0 -23.5 9.5t-9.5 23.5v31h-48v-31q0 -18 7 -33q10 -22 29.5 -35t44.5 -13h112q33 1 55.5 23.5t23.5 57.5v32q-1 33 -23.5 55.5t-55.5 23.5zM330 240
q-10 22 -29 35t-44 13h-112q-35 -1 -57.5 -23.5t-23.5 -55.5v-32q1 -35 23.5 -57.5t57.5 -23.5h47q-1 0 -13.5 12.5t-18.5 35.5h-15q-14 0 -23.5 9.5t-9.5 23.5v32q0 13 9.5 22t23.5 9h112q13 0 22 -9t9 -22v-33h48v33q0 16 -6 31z" />
    <glyph glyph-name="linkedin" unicode="&#xf134;" 
d="M417 384h-320q-14 0 -23.5 -8.5t-9.5 -21.5v-321q0 -13 9.5 -22.5t23.5 -10.5h320q14 1 22.5 10.5t8.5 22.5v321q0 13 -8.5 21.5t-22.5 8.5zM183 64h-55v171h55v-171zM157 261v0q-13 0 -21 8.5t-8 21t8 21t21.5 8.5t21.5 -8.5t8 -21t-8 -21t-22 -8.5zM384 64h-55v94
q0 17 -6.5 27t-21.5 10q-11 0 -18 -6t-10 -14q-2 -6 -2 -14v-97h-55v171h55v-24q6 9 17 18t33 10q27 0 44.5 -18.5t18.5 -56.5v-100z" />
    <glyph glyph-name="list-ol" unicode="&#xf135;" 
d="M109 -15q0 -23 -15.5 -36t-38.5 -13q-31 0 -50 19l17 25q14 -13 30 -13q8 0 14.5 4t6.5 12q0 19 -30 16l-8 16l9 13q7 9 12.5 15t10.5 11h-28v-15h-30v43h95v-25l-27 -33q15 -3 23.5 -13.5t8.5 -25.5zM109 164v-45h-103q-2 10 -2 15q0 15 7 27t16.5 19.5t18.5 13.5
t16 12.5t7 13t-4 10.5t-12 4q-13 0 -23 -17l-24 17q7 15 20.5 23t30.5 8q20 0 34.5 -12t14.5 -32q0 -14 -9.5 -26t-21.5 -18.5t-22 -14.5t-10 -15h36v17h30zM512 73v-55q0 -3 -2.5 -6t-6.5 -3h-348q-3 0 -6 3t-3 6v55q0 4 2.5 6.5t6.5 2.5h348q4 0 6.5 -2.5t2.5 -6.5z
M110 330v-28h-96v28h31v73h-1q-2 -5 -14 -16l-20 22l39 36h30v-115h31zM512 219v-54q0 -4 -2.5 -7t-6.5 -3h-348q-3 0 -6 3t-3 7v54q0 4 2.5 7t6.5 3h348q4 0 6.5 -3t2.5 -7zM512 366v-55q0 -4 -2.5 -6.5t-6.5 -2.5h-348q-3 0 -6 2.5t-3 6.5v55q0 3 3 6t6 3h348q4 0 6.5 -3
t2.5 -6z" />
    <glyph glyph-name="list-ul" unicode="&#xf136;" 
d="M110 46q0 -23 -16 -39t-39 -16t-39 16t-16 39t16 39t39 16t39 -16t16 -39zM110 192q0 -23 -16 -39t-39 -16t-39 16t-16 39t16 39t39 16t39 -16t16 -39zM512 73v-55q0 -3 -2.5 -6t-6.5 -3h-348q-3 0 -6 3t-3 6v55q0 4 3 6.5t6 2.5h348q4 0 6.5 -2.5t2.5 -6.5zM110 338
q0 -23 -16 -39t-39 -16t-39 16t-16 39t16 39t39 16t39 -16t16 -39zM512 219v-54q0 -4 -2.5 -7t-6.5 -3h-348q-3 0 -6 3t-3 7v54q0 4 3 7t6 3h348q4 0 6.5 -3t2.5 -7zM512 366v-55q0 -4 -2.5 -6.5t-6.5 -2.5h-348q-3 0 -6 2.5t-3 6.5v55q0 3 3 6t6 3h348q4 0 6.5 -3t2.5 -6z
" />
    <glyph glyph-name="lock" unicode="&#xf137;" 
d="M86 -32h340q9 0 15.5 6.5t6.5 15.5v212q0 9 -6.5 15.5t-15.5 6.5h-22v31q0 32 -11.5 63t-31.5 52t-47 33.5t-58 12.5v0v0q-31 0 -58 -12.5t-47 -33.5t-31.5 -52t-11.5 -63v-31h-22q-9 0 -15.5 -6.5t-6.5 -15.5v-212q0 -9 6.5 -15.5t15.5 -6.5zM161 255q0 21 7 43t21 37v1
q13 14 30.5 21.5t36.5 7.5v0q19 0 36.5 -7.5t30.5 -21.5v-1q14 -15 21 -37t7 -43v-31h-190v31z" />
    <glyph glyph-name="magic" unicode="&#xf138;" 
d="M358 282l84 84l-31 30l-83 -83zM455 396q0 -7 -5 -13l-367 -367q-5 -5 -13 -5t-13 5l-56 57q-6 5 -6 12.5t6 12.5l367 368q5 5 13 5t13 -5l56 -57q5 -5 5 -13zM69 451l28 -9l-28 -9l-8 -28l-9 28l-28 9l28 9l9 28zM161 432l56 -17l-56 -17l-17 -56l-17 56l-56 17l56 17
l17 56zM409 352l28 -9l-28 -8l-8 -28l-9 28l-28 8l28 9l9 28zM218 563l28 -9l-28 -9l-9 -28l-8 28l-28 9l28 9l8 28z" />
    <glyph glyph-name="magnify" unicode="&#xf139;" 
d="M311 219v-18q0 -4 -3 -6.5t-6 -2.5h-64v-64q0 -4 -3 -6.5t-6 -2.5h-19q-3 0 -6 2.5t-3 6.5v64h-64q-4 0 -6.5 2.5t-2.5 6.5v18q0 4 2.5 7t6.5 3h64v64q0 3 3 6t6 3h19q3 0 6 -3t3 -6v-64h64q3 0 6 -3t3 -7zM347 210q0 53 -37.5 90.5t-90 37.5t-90.5 -37.5t-38 -90.5
t38 -90.5t90.5 -37.5t90 37.5t37.5 90.5zM494 -27q0 -16 -11 -26.5t-26 -10.5t-26 11l-98 98q-51 -36 -114 -36q-40 0 -77.5 16t-64.5 43t-43 64t-16 78t16 78.5t43 64.5t64.5 42.5t78 15.5t78 -15.5t64.5 -42.5t43 -64.5t16 -78.5q0 -63 -36 -114l98 -98q11 -10 11 -25z
" />
    <glyph glyph-name="menu" unicode="&#xf13a;" 
d="M64 64h384v43h-384v-43zM64 171h384v42h-384v-42zM64 320v-43h384v43h-384z" />
    <glyph glyph-name="minus-lg" unicode="&#xf13b;" 
d="M457 238v-55q0 -12 -8 -20t-19 -8h-348q-11 0 -19 8t-8 20v55q0 11 8 19t19 8h348q11 0 19 -8t8 -19z" />
    <glyph glyph-name="minus" unicode="&#xf13c;" 
d="M64 224h384v-64h-384v64z" />
    <glyph glyph-name="moonshots" unicode="&#xf13d;" 
d="M69 205q2 77 53 128t129 53q77 -2 128 -53t53 -128q-2 -77 -53.5 -128t-128.5 -53q-77 2 -128 53t-53 128zM250 39q71 2 118 48.5t49 117.5q-2 70 -49 117t-117 49q-71 -2 -118 -49t-49 -117q2 -71 49 -117.5t117 -48.5zM220 205q0 -23 -15 -37.5t-37.5 -14.5t-37.5 15
t-15 37.5t15 37t37.5 14.5t37.5 -15t15 -37zM167 167q16 1 27 11.5t11 26.5t-11 26.5t-27 10.5t-26.5 -10.5t-10.5 -26.5t10.5 -26.5t26.5 -11.5zM235 129q13 0 21.5 -8.5t8.5 -21.5t-8.5 -21.5t-21.5 -8.5t-21.5 9t-8.5 21.5t8.5 21t21.5 8.5zM235 114q-6 0 -10.5 -4
t-4.5 -10.5t4.5 -11t11 -4.5t10.5 4.5t4 11t-4.5 10.5t-10.5 4zM326 280q13 0 21.5 -8.5t8.5 -21.5t-8.5 -21.5t-21.5 -8.5t-21.5 9t-8.5 21.5t8.5 21t21.5 8.5zM326 235q6 0 10.5 4.5t4.5 11t-4.5 10.5t-11 4t-10.5 -4.5t-4 -10.5t4.5 -10.5t10.5 -4.5zM235 333
q10 0 16.5 -6.5t6.5 -16t-6.5 -16t-16 -6.5t-16 6.5t-6.5 16t6.5 16t15.5 6.5zM235 303q7 1 7 7.5t-6.5 7t-7 -6.5t6.5 -8zM326 167q10 0 16 -6.5t6 -16t-6.5 -16t-16 -6.5t-16 6.5t-6.5 16t6.5 16t16.5 6.5zM326 152q-7 0 -7 -7t7 -7t7 6.5t-7 7.5z" />
    <glyph glyph-name="person" unicode="&#xf13e;" 
d="M448 0q0 1 -0.5 15t-1.5 25q0 8 -17 20t-64 29q-45 15 -53.5 20t-6.5 35q1 17 8.5 22.5t15.5 41.5q2 13 5 15.5t8 24.5q3 12 0.5 16.5t-1.5 10.5l3 33q2 18 -17 45.5t-71 30.5q-52 -3 -71 -30.5t-16 -45.5l3 -33q0 -6 -2.5 -10.5t0.5 -16.5q5 -22 8 -24.5t6 -15.5
q7 -36 14.5 -41.5t8.5 -22.5q2 -30 -6 -35t-54 -20q-47 -17 -64 -29t-17 -20q-1 -11 -2 -25v-15h384z" />
    <glyph glyph-name="picture-o" unicode="&#xf13f;" 
d="M165 283q0 -22 -16 -38t-39 -16t-39 16t-16 38.5t16 38.5t39 16t39 -16t16 -39zM457 174v-128h-402v55l91 91l46 -46l146 147zM366 494h-457q-4 0 -7 -3t-3 -6v-348q0 -4 3 -6.5t7 -2.5h457q3 0 6 2.5t3 6.5v348q0 3 -3 6t-6 3zM411 485v-348q0 -19 -13 -32.5t-32 -13.5
h-457q-19 0 -32.5 13.5t-13.5 32.5v348q0 18 13.5 31.5t32.5 13.5h457q19 0 32 -13.5t13 -31.5z" />
    <glyph glyph-name="pinterest" unicode="&#xf140;" 
d="M256 416q-95 -2 -158.5 -65.5t-65.5 -158.5q1 -70 37.5 -124t96.5 -81q-1 24 4 51l29 122q-1 1 -4 10.5t-3 25.5q0 25 12 41t31 17q15 -1 22.5 -10.5t7 -24.5t-7 -36t-12.5 -42q-3 -19 7 -31t29 -13q32 2 51 36t20 84q-1 37 -24.5 61t-69.5 24q-51 -1 -80 -32t-30 -75
q1 -29 15 -44q3 -3 3.5 -5.5t-0.5 -6.5l-5 -18q-2 -9 -11 -6q-23 10 -34.5 33t-11.5 53q0 50 40.5 93.5t120.5 46.5q64 -2 102 -39.5t39 -89.5q-1 -67 -33.5 -109.5t-87.5 -43.5q-18 0 -33 8t-21 20l-16 -62q-4 -13 -10 -25.5t-13 -22.5q31 -9 64 -9q95 2 158 65.5t66 158.5
q-2 95 -65.5 158.5t-158.5 65.5z" />
    <glyph glyph-name="play-circle" unicode="&#xf141;" 
d="M375 192q0 -11 -9 -16l-156 -91q-4 -3 -8.5 -3t-9.5 3q-9 5 -9 16v182q0 11 9 16.5t18 -0.5l156 -91q9 -5 9 -16zM411 192q0 42 -20.5 78t-56.5 56.5t-78 20.5t-78 -20.5t-56.5 -56.5t-20.5 -78t20.5 -78t56.5 -56.5t78 -20.5t78 20.5t56.5 56.5t20.5 78zM475 192
q0 -60 -29 -110.5t-79.5 -79.5t-110.5 -29t-110.5 29t-79.5 79.5t-29 110.5t29 110.5t79.5 79.5t110.5 29t110.5 -29t79.5 -79.5t29 -110.5z" />
    <glyph glyph-name="play" unicode="&#xf142;" 
d="M405 215l-278 166q-5 3 -11 3q-8 0 -14 -6t-6 -14v-344q0 -8 6 -14t14 -6q6 0 11 3l278 166q11 9 11 23t-11 23z" />
    <glyph glyph-name="quote" unicode="&#xf143;" 
d="M192 384q-61 0 -94.5 -33.5t-33.5 -94.5v-256h160v256h-96q0 35 14.5 49.5t49.5 14.5v64zM416 384q-61 0 -94.5 -33.5t-33.5 -94.5v-256h160v256h-96q0 35 14.5 49.5t49.5 14.5v64z" />
    <glyph glyph-name="reddit" unicode="&#xf144;" 
d="M291 160q0 -14 9 -23t22.5 -9t22.5 9t9 22.5t-9 22.5t-22.5 9t-22.5 -9t-9 -22zM159 160q0 -14 9 -23t22.5 -9t22.5 9t9 22.5t-9 22.5t-22.5 9t-22.5 -9t-9 -22zM481 197q-1 21 -15 35.5t-34.5 14.5t-34.5 -13q-25 18 -57.5 28.5t-70.5 12.5l23 77l70 -14
q0 -19 12.5 -31.5t31.5 -12.5t31.5 13t12.5 32t-12.5 32t-31.5 13q-14 0 -25 -7.5t-16 -20.5l-85 17l-30 -98h-7q-38 -2 -70.5 -12.5t-57.5 -28.5q-14 13 -34.5 13t-34.5 -14.5t-15 -35.5q1 -15 8 -26.5t20 -18.5q-2 -7 -2 -15q3 -58 59 -97t140 -40q84 1 140 40t59 98
l-2 14q13 7 20 18.5t8 26.5zM406 366q11 0 19 -8t8 -19.5t-8 -19t-19 -7.5t-18.5 7.5t-7.5 19t7.5 19.5t18.5 8zM49 197q1 14 10 23t22 9q11 0 19 -6q-26 -23 -37 -53q-13 10 -14 27zM386 55q-26 -18 -59.5 -27.5t-70.5 -9.5t-70.5 9.5t-59 27t-38.5 38.5t-13 45l1 9
q1 9 4 18q9 23 31 43q6 6 14 12h1q26 18 59.5 27.5t70.5 9.5t70.5 -9.5t59.5 -27.5h1q8 -6 14 -12q22 -20 31 -43q3 -9 4 -18q1 -5 1 -9q0 -24 -13 -45t-38 -38zM449 170q-11 30 -37 53q8 6 19 6q13 0 22 -9t10 -23q-1 -17 -14 -27zM321 90q-1 -2 -18 -12.5t-47 -11.5
q-31 1 -47.5 11.5t-17.5 12.5l-12 -12q1 -3 21 -15.5t56 -14.5q36 2 56 14.5t21 15.5z" />
    <glyph glyph-name="refresh" unicode="&#xf145;" 
d="M273 148v-58q38 6 62 34.5t24 67.5q0 24 -10 45q-4 8 -9 16l47 44l3 -4q32 -43 33 -101v-4q-2 -54 -32.5 -95.5t-78.5 -58.5q-19 -7 -39 -9v-57l-102 90zM89 196q2 55 33 96t80 59q17 6 37 8v57l102 -90l-103 -90l1 58q-38 -7 -62 -35t-24 -67q0 -24 10 -45q4 -8 9 -16
l-47 -44l-3 5q-32 43 -33 100v4z" />
    <glyph glyph-name="remove" unicode="&#xf146;" 
d="M411 193q0 46 -24 84l-216 -215q39 -25 85 -25q32 0 60.5 12t49.5 33t33 50t12 61zM126 107l216 216q-39 26 -86 26q-42 0 -78 -21t-56.5 -57t-20.5 -78q0 -46 25 -86zM475 193q0 -45 -17 -86t-46.5 -70.5t-70 -46.5t-85.5 -17t-85.5 17t-70 46.5t-46.5 70.5t-17 86
t17 85.5t46.5 70t70 47t85.5 17.5t85.5 -17.5t70 -47t46.5 -70t17 -85.5z" />
    <glyph glyph-name="reply" unicode="&#xf147;" 
d="M448 48q4 13 -41.5 104t-182.5 104v80l-160 -144l160 -134v92q76 2 130.5 -16.5t93.5 -85.5z" />
    <glyph glyph-name="rss" unicode="&#xf148;" 
d="M120 112q-24 -1 -39.5 -16.5t-15.5 -39.5t15.5 -39.5t39.5 -15.5t39.5 15.5t15.5 39.5t-15.5 39.5t-39.5 16.5zM64 256v-80q36 0 69 -11.5t58.5 -37t37 -58.5t11.5 -69h80q-3 108 -75.5 180.5t-180.5 75.5zM64 384v-80q131 -3 216 -88t88 -216h80q-4 163 -112.5 271.5
t-271.5 112.5z" />
    <glyph glyph-name="search" unicode="&#xf149;" 
d="M445 61l-85 86q21 37 21 78q-2 68 -46.5 112.5t-111.5 46.5q-68 -2 -112.5 -46.5t-46.5 -112.5q2 -67 46.5 -112t112.5 -47q42 0 80 23l84 -86q3 -3 7.5 -3t7.5 3l43 44q6 7 0 14zM223 322q41 -1 68 -28.5t27 -68.5t-27 -68.5t-68 -27.5t-68.5 27.5t-27.5 68.5t27.5 68.5
t68.5 28.5z" />
    <glyph glyph-name="share" unicode="&#xf14a;" 
d="M352 70h-250v180h58l10.5 11.5t32.5 26.5h-120q-8 0 -13.5 -5.5t-5.5 -13.5v-218q0 -8 5.5 -13.5t13.5 -5.5h288q8 0 13.5 5.5t5.5 13.5v109l-38 -31v-59zM320 224v-64l128 96l-128 96v-60q-112 -10 -138.5 -82t-21.5 -82q31 53 65 75t95 21z" />
    <glyph glyph-name="strikethrough" unicode="&#xf14b;" 
d="M503 192q4 0 6.5 -2.5t2.5 -6.5v-18q0 -4 -2.5 -7t-6.5 -3h-494q-4 0 -6.5 3t-2.5 7v18q0 4 2.5 6.5t6.5 2.5h494zM138 210q-8 10 -15 23q-13 28 -13 54q0 52 38 88t112 36q15 0 48 -5q19 -3 51 -14l6 -33q4 -36 4 -53q0 -5 -2 -13h-3l-28 2q-15 42 -30 58q-25 26 -60 26
q-32 0 -51.5 -16.5t-19.5 -41.5q0 -21 19 -40t80 -37q19 -6 49 -19q17 -8 27 -15h-212zM283 137h117q2 -11 2 -26q0 -32 -11 -61q-7 -15 -21 -29q-10 -10 -31 -24q-23 -13 -44.5 -18.5t-57.5 -5.5q-32 0 -55 6l-40 12q-17 4 -21 8q-2 2 -2 6v4q0 30 -1 44v20l1 10v13h29
l15 -36q2 -5 4 -8q10 -16 22.5 -26.5t29.5 -16.5t38 -6q18 0 40 7.5t35 25t13 36.5q0 24 -23 45q-10 8 -39 20z" />
    <glyph glyph-name="stumbleupon" unicode="&#xf14c;" 
d="M285 245v33q0 12 -8.5 20.5t-20.5 8.5t-20.5 -8.5t-8.5 -20.5v-175q0 -50 -36 -85t-87 -35t-86.5 35.5t-35.5 86.5v76h93v-75q0 -12 9 -20.5t21 -8.5t20.5 8.5t8.5 20.5v177q0 49 36 83.5t86 34.5t86 -34.5t36 -83.5v-39l-55 -17zM474 164h94v-76q0 -51 -36 -87
t-86.5 -36t-86.5 35.5t-36 86.5v76l37 -17l56 16v-77q0 -12 8.5 -20.5t20.5 -8.5t20.5 8.5t8.5 20.5v79z" />
    <glyph glyph-name="text-height" unicode="&#xf14d;" 
d="M498 46q10 0 12.5 -5.5t-3.5 -12.5l-36 -47q-6 -7 -14 -7t-14 7l-36 47q-6 7 -3 12.5t12 5.5h23v292h-23q-9 0 -12 5.5t3 12.5l36 47q6 7 14 7t14 -7l36 -47q6 -7 3.5 -12.5t-12.5 -5.5h-23v-292h23zM23 411l16 -8q3 -1 60 -1l75 1h157l5 1q3 0 5 2t4 5h20q1 -32 1 -96
q0 -23 -2 -31q-11 -4 -19 -5q-7 12 -16 36l-9 45q-2 3 -3.5 4t-4.5 2h-4l-50 1l-18 -1q-11 -1 -20 -2q-3 -23 -3 -39l2 -240l-1 -21q-1 -16 0 -26t3 -20q12 -6 36 -12t34 -11l2 -14q0 -4 -1 -8h-10q-22 -1 -62.5 2t-58.5 3q-15 0 -43.5 -2.5t-43.5 -2.5l-1 17q5 8 17.5 12.5
t28 8t22.5 7.5q6 12 6 110l-2 173v52l-1 7q-1 3 -1 4q-4 3 -47 3q-9 0 -26 -3t-23 -7t-10 -21t-9 -32t-12 -15q-12 7 -16 12v110h23z" />
    <glyph glyph-name="twitter" unicode="&#xf14e;" 
d="M492 339q-26 -12 -56 -16q31 19 43 54q-28 -17 -61 -24q-14 15 -32 23t-39 8q-41 -1 -68.5 -28.5t-28.5 -68.5q0 -11 3 -22q-61 3 -112.5 30t-87.5 71q-13 -21 -13 -47.5t11.5 -47.5t31.5 -34q-24 1 -44 12v-1q1 -36 22.5 -62t55.5 -33q-13 -4 -26 -4q-9 0 -18 2
q10 -29 34 -47.5t57 -19.5q-25 -20 -56 -30.5t-65 -11.5q-11 0 -23 2q32 -21 69.5 -32.5t78.5 -11.5q135 5 205 89.5t71 186.5v12q28 21 48 51z" />
    <glyph glyph-name="underline" unicode="&#xf14f;" 
d="M50 384q-10 1 -13 1v26h11q17 0 32 -1q38 -2 47 -2q25 0 48 1l42 1q16 0 25 1l-1 -4l1 -21q-17 -3 -35 -3t-23 -7q-4 -4 -4 -38l1 -82l4 -80q2 -35 14 -57q10 -17 28 -27q25 -13 50 -13q30 0 55 8q16 5 29 15t18 18q10 16 15 32q6 21 6 66q0 22 -1 36l-3 35q-2 21 -4 46
l-1 17q-2 19 -7 25q-10 10 -22 10l-29 -1l-4 1l1 24h24l59 -2q21 -1 56 2h5q1 -11 1 -15l-1 -9q-13 -3 -24 -3q-21 -3 -22 -5q-5 -4 -5 -12l1 -16q3 -6 7 -114q1 -55 -5 -86q-4 -22 -11 -35q-11 -19 -32.5 -35.5t-52.5 -25.5t-72 -9q-48 0 -81.5 13t-51 34.5t-23.5 55.5
q-5 23 -5 68v95q0 54 -5 61q-7 10 -42 11zM475 -18v18q0 4 -2.5 6.5t-6.5 2.5h-420q-4 0 -6.5 -2.5t-2.5 -6.5v-18q0 -4 2.5 -6.5t6.5 -2.5h420q4 0 6.5 2.5t2.5 6.5z" />
    <glyph glyph-name="youtube" unicode="&#xf150;" 
d="M509 299q-1 35 -22 58t-52 23q-83 4 -170 4h-18q-86 0 -170 -4q-31 0 -52 -23t-21 -58q-4 -53 -4 -106.5t3 -107.5q1 -34 22 -57t52 -24q88 -4 179 -4t179 4q31 1 52 24t22 57q3 54 3 107.5t-3 106.5zM207 94v197l145 -99z" />
  </font>
</defs>
</svg>
